<svg width="500" height="500" viewBox="0 0 500 500" fill="none" xmlns="http://www.w3.org/2000/svg">
  <rect width="500" height="500" fill="#F3F4F6"/>
  <path d="M250 150C194.772 150 150 194.772 150 250C150 305.228 194.772 350 250 350C305.228 350 350 305.228 350 250C350 194.772 305.228 150 250 150ZM250 330C206.863 330 170 293.137 170 250C170 206.863 206.863 170 250 170C293.137 170 330 206.863 330 250C330 293.137 293.137 330 250 330Z" fill="#9CA3AF"/>
  <path d="M250 190C211.817 190 180 221.817 180 260C180 298.183 211.817 330 250 330C288.183 330 320 298.183 320 260C320 221.817 288.183 190 250 190ZM250 310C223.909 310 200 286.091 200 260C200 233.909 223.909 210 250 210C276.091 210 300 233.909 300 260C300 286.091 276.091 310 250 310Z" fill="#6B7280"/>
  <path d="M250 230C229.009 230 212 247.009 212 268C212 288.991 229.009 306 250 306C270.991 306 288 288.991 288 268C288 247.009 270.991 230 250 230ZM250 290C241.163 290 234 282.837 234 274C234 265.163 241.163 258 250 258C258.837 258 266 265.163 266 274C266 282.837 258.837 290 250 290Z" fill="#4B5563"/>
</svg> 